<?xml version="1.0" standalone="no"?>
<!DOCTYPE svg PUBLIC "-//W3C//DTD SVG 20010904//EN"
 "http://www.w3.org/TR/2001/REC-SVG-20010904/DTD/svg10.dtd">
<svg version="1.0" xmlns="http://www.w3.org/2000/svg"
 width="500.000000pt" height="500.000000pt" viewBox="0 0 500.000000 500.000000"
 preserveAspectRatio="xMidYMid meet">

<g transform="translate(0.000000,500.000000) scale(0.100000,-0.100000)"
fill="#000000" stroke="none">
<path d="M850 2555 l0 -635 910 0 c606 0 910 3 910 10 0 7 -301 10 -900 10
l-900 0 0 615 0 615 1640 0 1640 0 0 -490 c0 -320 3 -490 10 -490 7 0 10 173
10 500 l0 500 -1660 0 -1660 0 0 -635z"/>
<path d="M1195 2828 c-4 -16 -65 -526 -65 -550 0 -13 8 -18 28 -18 l28 0 23
203 c13 111 25 204 27 206 7 8 14 -5 103 -205 65 -144 94 -199 106 -199 13 0
42 56 107 203 50 111 94 202 98 202 4 0 10 -28 13 -62 4 -35 14 -127 23 -205
l17 -143 28 0 c21 0 29 5 29 18 0 48 -64 548 -72 557 -19 21 -43 -18 -136
-228 -54 -121 -102 -218 -107 -216 -6 1 -55 103 -109 226 -78 176 -103 223
-118 223 -10 0 -20 -6 -23 -12z"/>
<path d="M2137 2833 c-4 -3 -7 -134 -7 -290 l0 -283 155 0 155 0 0 30 0 29
-122 3 -123 3 0 100 0 100 118 3 117 3 0 29 0 30 -120 0 -121 0 3 93 3 92 118
3 117 3 0 29 0 30 -143 0 c-79 0 -147 -3 -150 -7z"/>
<path d="M2867 2819 c-57 -30 -79 -72 -74 -143 3 -51 8 -63 34 -86 17 -15 68
-42 114 -60 103 -39 139 -70 139 -120 0 -47 -22 -77 -69 -91 -72 -22 -145 9
-171 71 -10 24 -19 30 -41 30 -34 0 -35 -10 -10 -66 23 -50 63 -80 126 -94
134 -30 248 58 230 178 -9 63 -54 102 -155 138 -125 44 -161 88 -129 157 17
38 58 53 126 49 29 -3 83 -49 83 -73 0 -15 7 -19 36 -19 32 0 35 2 29 23 -25
81 -87 127 -175 126 -35 0 -69 -7 -93 -20z"/>
<path d="M3507 2833 c-4 -3 -7 -134 -7 -290 l0 -283 145 0 145 0 0 30 0 29
-112 3 -113 3 -3 258 -2 257 -24 0 c-12 0 -26 -3 -29 -7z"/>
<path d="M3735 2060 c3 -5 8 -10 11 -10 2 0 4 5 4 10 0 6 -5 10 -11 10 -5 0
-7 -4 -4 -10z"/>
<path d="M2770 2050 c0 -5 7 -7 15 -4 8 4 15 8 15 10 0 2 -7 4 -15 4 -8 0 -15
-4 -15 -10z"/>
<path d="M2729 2033 c-13 -16 -12 -17 4 -4 16 13 21 21 13 21 -2 0 -10 -8 -17
-17z"/>
<path d="M3641 2034 c0 -11 3 -14 6 -6 3 7 2 16 -1 19 -3 4 -6 -2 -5 -13z"/>
<path d="M3871 2019 c-14 -42 -7 -49 9 -9 7 17 10 33 8 36 -3 3 -11 -9 -17
-27z"/>
<path d="M3480 2006 c-15 -39 -23 -76 -17 -76 7 0 38 92 32 98 -2 3 -9 -7 -15
-22z"/>
<path d="M2711 1994 c0 -11 3 -14 6 -6 3 7 2 16 -1 19 -3 4 -6 -2 -5 -13z"/>
<path d="M3023 1983 c20 -2 54 -2 75 0 20 2 3 4 -38 4 -41 0 -58 -2 -37 -4z"/>
<path d="M2747 1941 c-4 -19 -6 -35 -4 -37 1 -1 13 6 27 17 21 16 22 18 5 13
-20 -6 -20 -5 -1 10 24 19 40 21 30 4 -5 -8 0 -7 11 2 16 13 16 15 2 18 -9 2
-25 -1 -36 -7 -14 -8 -20 -8 -23 1 -3 7 -8 -3 -11 -21z"/>
<path d="M3006 1924 c-5 -14 -4 -15 9 -4 17 14 19 20 6 20 -5 0 -12 -7 -15
-16z"/>
<path d="M3310 1866 c-36 -39 -49 -57 -30 -41 19 17 40 38 48 48 7 9 18 15 23
12 5 -4 9 -1 9 6 0 7 7 21 17 31 9 10 12 17 7 17 -5 -1 -38 -33 -74 -73z"/>
<path d="M2861 1914 c0 -11 3 -14 6 -6 3 7 2 16 -1 19 -3 4 -6 -2 -5 -13z"/>
<path d="M2976 1915 c-3 -8 -1 -15 4 -15 6 0 10 7 10 15 0 8 -2 15 -4 15 -2 0
-6 -7 -10 -15z"/>
<path d="M3421 1916 c-7 -8 -11 -23 -8 -33 4 -14 5 -14 6 4 1 22 18 40 28 29
3 -3 0 -12 -7 -21 -11 -13 -10 -14 4 -9 18 7 18 35 0 41 -6 2 -17 -3 -23 -11z"/>
<path d="M3695 1920 c-3 -6 1 -7 9 -4 18 7 21 14 7 14 -6 0 -13 -4 -16 -10z"/>
<path d="M2891 1904 c0 -11 3 -14 6 -6 3 7 2 16 -1 19 -3 4 -6 -2 -5 -13z"/>
<path d="M2921 1896 c0 -16 -9 -38 -18 -49 -10 -11 -13 -17 -6 -14 6 4 14 2
16 -3 3 -6 4 -5 2 2 -1 7 9 26 24 43 14 16 18 24 9 17 -14 -11 -17 -10 -21 10
-4 19 -4 18 -6 -6z"/>
<path d="M3280 1910 c0 -5 5 -10 11 -10 5 0 7 5 4 10 -3 6 -8 10 -11 10 -2 0
-4 -4 -4 -10z"/>
<path d="M3833 1909 c-5 -5 -8 -21 -5 -35 4 -25 5 -25 19 -4 8 11 19 17 25 14
7 -4 8 -2 4 5 -6 9 -11 9 -24 -1 -13 -11 -15 -10 -10 10 7 25 6 26 -9 11z"/>
<path d="M3964 1898 c-14 -17 -15 -20 -2 -9 9 7 21 10 26 7 5 -3 9 1 9 9 0 21
-11 19 -33 -7z"/>
<path d="M3078 1903 c6 -2 18 -2 25 0 6 3 1 5 -13 5 -14 0 -19 -2 -12 -5z"/>
<path d="M3191 1897 c-8 -10 -7 -14 4 -14 8 0 15 6 15 14 0 7 -2 13 -4 13 -2
0 -9 -6 -15 -13z"/>
<path d="M3234 1888 l-19 -23 23 19 c21 18 27 26 19 26 -2 0 -12 -10 -23 -22z"/>
<path d="M3705 1900 c-4 -6 -11 -8 -16 -5 -5 4 -9 1 -9 -4 0 -16 16 -13 30 4
7 8 10 15 7 15 -3 0 -9 -5 -12 -10z"/>
<path d="M3909 1893 c-8 -9 -9 -14 -2 -10 6 4 14 1 16 -5 3 -7 6 -3 6 10 1 26
-2 27 -20 5z"/>
<path d="M4030 1895 c0 -8 2 -15 4 -15 2 0 6 7 10 15 3 8 1 15 -4 15 -6 0 -10
-7 -10 -15z"/>
<path d="M3783 1855 c0 -8 4 -12 9 -9 5 3 6 10 3 15 -9 13 -12 11 -12 -6z"/>
<path d="M3146 1845 c-3 -8 -1 -15 4 -15 6 0 10 7 10 15 0 8 -2 15 -4 15 -2 0
-6 -7 -10 -15z"/>
<path d="M3441 1844 c0 -11 3 -14 6 -6 3 7 2 16 -1 19 -3 4 -6 -2 -5 -13z"/>
<path d="M3130 1808 c0 -4 4 -8 9 -8 6 0 12 4 15 8 3 5 -1 9 -9 9 -8 0 -15 -4
-15 -9z"/>
<path d="M3592 1780 c0 -14 2 -19 5 -12 2 6 2 18 0 25 -3 6 -5 1 -5 -13z"/>
<path d="M2951 1764 c0 -11 3 -14 6 -6 3 7 2 16 -1 19 -3 4 -6 -2 -5 -13z"/>
<path d="M3259 1753 c-13 -16 -12 -17 4 -4 16 13 21 21 13 21 -2 0 -10 -8 -17
-17z"/>
</g>
</svg>
